<?xml version="1.0" encoding="UTF-8" standalone="no"?>
<svg width="208px" height="74px" viewBox="0 0 208 74" version="1.1" xmlns="http://www.w3.org/2000/svg" xmlns:xlink="http://www.w3.org/1999/xlink">
    <!-- Generator: Sketch 3.8.3 (29802) - http://www.bohemiancoding.com/sketch -->
    <title>kibana 2</title>
    <desc>Created with Sketch.</desc>
    <defs></defs>
    <g id="Page-1" stroke="none" stroke-width="1" fill="none" fill-rule="evenodd">
        <g id="kibana" transform="translate(9.000000, 20.000000)">
            <g id="Group">
                <g id="XMLID_2466_">
                    <g id="XMLID_2467_">
                        <ellipse id="XMLID_2469_" fill="#F8B717" cx="16.4100264" cy="17" rx="16.0977988" ry="16.7059"></ellipse>
                        <path d="M26.9824918,16.0247667 C26.7398307,15.7595667 26.4144566,15.5827667 26.0540254,15.5283667 C25.8031478,14.8778333 25.4728439,13.9893 25.0614703,12.9438 C24.7273319,12.0966333 24.3641619,10.9984333 23.0730733,10.9984333 C21.7819847,10.9984333 21.3640379,12.0966333 21.07153,12.9438 L18.2231376,21.6829333 C18.0001962,22.3187333 17.9005024,22.6485333 17.6885163,22.6485333 C17.4765302,22.6485333 17.3834097,22.2966333 17.1708758,21.6829333 L13.1902475,9.6662 C12.913077,8.86323333 12.4874615,7.56443333 11.200755,7.56443333 C9.9764941,7.56443333 9.51965579,8.7244 9.20578487,9.6475 L7.2058848,15.5215667 C6.82299514,15.5669 6.47790146,15.7465333 6.22373722,16.0242 C5.93177701,16.3426667 5.75375249,16.7829667 5.75375249,17.2629333 C5.75375249,17.7446 5.93177701,18.1826333 6.22373722,18.5011 C6.51569743,18.8218333 6.92487994,19.023 7.37733611,19.023 C7.82979227,19.023 8.24061809,18.8218333 8.5325783,18.5011 C8.82399075,18.1826333 9.00201527,17.7446 9.00201527,17.2629333 C9.00201527,16.8334 8.85466574,16.4418333 8.61638677,16.1341333 L10.644223,10.1801667 C10.8216997,9.68376667 10.9345399,9.24176667 11.200755,9.24176667 C11.4609447,9.24176667 11.5699505,9.68376667 11.747975,10.1801667 L15.7280555,22.1980333 C16.0857479,23.1914 16.4138607,24.2941333 17.7005672,24.2941333 C18.9872737,24.2941333 19.3159343,23.1914 19.668149,22.1884 L22.4245163,13.7331667 C22.6753939,13.0106667 22.7876863,12.5856667 23.0632135,12.5856667 C23.3392885,12.5856667 23.4504853,13.0106667 23.7265603,13.7439333 C24.095208,14.722 24.3395124,15.3396667 24.5865556,15.9817 C24.6013454,16.0208 24.6128485,16.0497 24.6270904,16.0865333 C24.3658052,16.4004667 24.203666,16.8118667 24.203666,17.2629333 C24.203666,17.7446 24.382786,18.1826333 24.6747462,18.5011 C24.9656109,18.8218333 25.3769845,19.023 25.8294407,19.023 C26.2802535,19.023 26.6910793,18.8218333 26.9830396,18.5011 C27.2749998,18.1826333 27.4530243,17.7446 27.4530243,17.2629333 C27.4530243,16.7829667 27.2749998,16.3432333 26.9824918,16.0247667 L26.9824918,16.0247667 Z" id="XMLID_2468_" fill="#FFFFFF"></path>
                    </g>
                </g>
                <g id="XMLID_2439_" transform="translate(39.987046, 8.500000)" fill="#FFFFFF">
                    <g id="XMLID_2443_" transform="translate(-0.000000, 0.000000)">
                        <g id="XMLID_2448_" transform="translate(15.337497, 0.000000)">
                            <polygon id="XMLID_2464_" points="3.39944668 0.5559 3.39944668 16.0236333 0.337972704 16.0236333 0.337972704 0.5559"></polygon>
                            <polygon id="XMLID_2462_" points="7.46497895 5.22013333 9.75957807 12.7069333 12.0969031 5.22013333 15.1370141 5.22013333 11.1870608 15.8315333 9.9255517 20.1314 6.84435808 20.1314 8.16776498 16.0667 4.15591395 5.22013333 7.46497895 5.22013333"></polygon>
                            <path d="M22.2914087,15.8734667 C21.297758,16.1505667 20.4092787,16.2163 19.9124534,16.2163 C16.8318075,16.2163 16.8318075,14.2057667 16.8318075,13.3064667 L16.8318075,7.55876667 L15.3391404,7.55876667 L15.3391404,5.2836 L16.8318075,5.2836 L16.8318075,3.16596667 L19.8719186,2.01053333 L19.8719186,5.2836 L22.3533065,5.2836 L22.3533065,7.55876667 L19.8719186,7.55876667 L19.8719186,12.2575667 C19.8916382,13.2418667 19.8916382,13.8635 21.2572232,13.8635 C21.7118705,13.8635 21.9183789,13.8414 22.2914087,13.7989 L22.2914087,15.8734667 L22.2914087,15.8734667 Z" id="XMLID_2460_"></path>
                            <path d="M23.609338,0.578 L26.8773204,0.578 L26.8773204,3.3388 L23.609338,3.3388 L23.609338,0.578 L23.609338,0.578 Z M23.7123183,5.1986 L26.7737923,5.1986 L26.7737923,16.0236333 L23.7123183,16.0236333 L23.7123183,5.1986 L23.7123183,5.1986 Z" id="XMLID_2457_"></path>
                            <path d="M43.8844136,4.96343333 C47.6694888,4.96343333 49.30348,7.616 49.30348,10.6329333 C49.30348,13.6708333 47.607591,16.4095333 43.8225158,16.4095333 C40.8453981,16.4095333 38.4872579,14.5055333 38.4872579,10.7173667 C38.4872579,8.10843333 39.7690345,4.96343333 43.8844136,4.96343333 L43.8844136,4.96343333 Z M43.9265917,14.2057667 C45.2713616,14.2057667 46.180656,13.3716333 46.180656,10.5043 C46.180656,9.07063333 45.9111543,7.08163333 43.8844136,7.08163333 C41.6511645,7.08163333 41.6303493,9.75686667 41.6303493,10.7389 C41.6303493,13.1563 42.416396,14.2057667 43.9265917,14.2057667 L43.9265917,14.2057667 Z" id="XMLID_2454_"></path>
                            <g id="XMLID_2449_" transform="translate(49.299098, 14.166667)">
                                <polygon id="XMLID_2452_" points="1.02651677 0.403466667 0.51216285 0.403466667 0.51216285 0.2176 1.74957021 0.2176 1.74957021 0.403466667 1.23576405 0.403466667 1.23576405 1.80143333 1.02651677 1.80143333"></polygon>
                                <polygon id="XMLID_2450_" points="1.92047375 0.2176 2.29569466 0.2176 2.72788341 1.52263333 3.17267083 0.2176 3.52214666 0.2176 3.52214666 1.80143333 3.31399491 1.80143333 3.31399491 0.375133333 2.81169188 1.80143333 2.60956558 1.80143333 2.12752996 0.3842 2.12752996 1.80143333 1.92047375 1.80143333 1.92047375 0.2176"></polygon>
                            </g>
                        </g>
                        <g id="XMLID_2444_">
                            <path d="M12.5975628,2.29783333 C14.191567,4.18256667 14.5021513,6.6028 14.5021513,8.12316667 C14.5021513,10.3722667 13.8399001,12.7709667 12.618378,14.1842333 C10.9624761,16.1114667 8.53969928,16.3902667 7.29790978,16.3902667 C5.33087578,16.3902667 3.36438954,15.7476667 1.99825677,14.2698 C0.362622253,12.4712 0.155566042,9.9008 0.155566042,8.48753333 C0.155018274,4.37523333 1.95607865,0.1989 7.33899237,0.1989 C8.93299653,0.1989 11.1273542,0.584233333 12.5975628,2.29783333 Z M4.62699422,12.7069333 C5.08273699,13.3495333 5.84851631,13.9490667 7.33899237,13.9490667 C8.64322739,13.9490667 9.53334999,13.4776 10.1342512,12.5142667 C10.6310766,11.7430333 11.1487171,10.5439667 11.1487171,8.08123333 C11.1487171,7.33153333 11.0868193,6.26053333 10.776235,5.31816667 C10.1550664,3.4119 8.89246172,2.57663333 7.36035531,2.57663333 C6.15964839,2.57663333 5.20708027,3.0906 4.60672681,3.88336667 C3.75768679,4.95436667 3.50900023,6.6249 3.50900023,8.381 C3.50900023,9.8583 3.73687162,11.5073 4.62699422,12.7069333 L4.62699422,12.7069333 Z" id="XMLID_2445_"></path>
                        </g>
                    </g>
                    <g id="XMLID_2440_" transform="translate(42.725885, 4.533333)">
                        <path d="M7.15439463,4.4676 C7.13850937,4.36786667 7.11659866,4.21033333 7.08756697,3.99556667 C7.05689197,3.7808 6.99061207,3.55923333 6.8865362,3.3303 C6.7830081,3.10136667 6.63839741,2.90076667 6.45325191,2.72906667 C6.26755864,2.55736667 6.01941985,2.47123333 5.70828776,2.47123333 C5.32265926,2.47123333 5.01481379,2.59703333 4.7852991,2.84693333 C4.55523664,3.0974 4.3810465,3.4017 4.26218089,3.75926667 C4.14386306,4.11683333 4.06553227,4.49253333 4.02828406,4.88636667 C3.99158362,5.2802 3.97295952,5.62643333 3.97295952,5.92733333 C3.97295952,6.08486667 3.9800805,6.30643333 3.99487023,6.5926 C4.00911219,6.87876667 4.04252602,7.18646667 4.09511173,7.5157 C4.14605413,7.84493333 4.22821929,8.1668 4.33886838,8.4813 C4.450613,8.79636667 4.60289244,9.0542 4.79515892,9.25423333 C4.95839371,9.41176667 5.11779412,9.5115 5.27390793,9.55456667 C5.42892621,9.59763333 5.56586815,9.61916667 5.68528152,9.61916667 C5.77401989,9.61916667 5.8961721,9.6016 6.05173814,9.5659 C6.20785195,9.5302 6.363418,9.44406667 6.51898404,9.30806667 C6.67455008,9.17206667 6.81916077,8.96466667 6.95226833,8.6853 C7.08647143,8.40593333 7.16699329,8.02343333 7.19712052,7.53666667 L10.4442878,7.53666667 C10.4300458,7.75143333 10.4075873,7.98716667 10.3774601,8.245 C10.3473329,8.50283333 10.2848873,8.77086667 10.1884802,9.05023333 C10.0920731,9.32903333 9.95074902,9.61576667 9.76560352,9.90873333 C9.57991025,10.2022667 9.32410271,10.4776667 8.99818089,10.7349333 C8.59776266,11.0647333 8.14256766,11.3146333 7.63040481,11.4863333 C7.11878973,11.6580333 6.50748092,11.7441667 5.79538284,11.7441667 C5.03946334,11.7441667 4.34215498,11.6438667 3.70400555,11.4432667 C3.06640389,11.2432333 2.48850891,10.8641333 1.96922508,10.3054 C1.4795207,9.7614 1.12018506,9.1324 0.890670368,8.4167 C0.660607911,7.701 0.545576683,6.90653333 0.545576683,6.03386667 C0.545576683,4.80306667 0.749346287,3.81593333 1.15743326,3.07133333 C1.56497247,2.3273 2.05084247,1.75836667 2.61394772,1.36453333 C3.17705297,0.971266667 3.75549572,0.713433333 4.34927597,0.5916 C4.94141291,0.470333333 5.4239963,0.409133333 5.79483507,0.409133333 C6.31357113,0.409133333 6.84381032,0.4845 7.38500486,0.634666667 C7.9261994,0.784833333 8.41973814,1.02113333 8.86397779,1.343 C9.30931298,1.66486667 9.67193523,2.08363333 9.95403562,2.59873333 C10.2355882,3.1144 10.3769123,3.7366 10.3769123,4.46646667 L7.15439463,4.46646667 L7.15439463,4.4676 Z" id="XMLID_2441_"></path>
                    </g>
                </g>
            </g>
        </g>
        <rect id="rect4262" x="0" y="0" width="207.5" height="74"></rect>
    </g>
</svg>